<svg width="81" height="80" viewBox="0 0 81 80" fill="none" xmlns="http://www.w3.org/2000/svg">
<ellipse cx="34.7732" cy="36.8485" rx="18.7303" ry="26.5951" fill="white" stroke="#303030" stroke-width="2"/>
<path d="M24.7993 52.2981C28.1359 53.1523 31.7835 52.0898 33.2555 51.3539C35.4039 50.2797 36.8583 48.093 37.7855 45.5198M42.6871 38.9482C49.0624 27.5903 37.9918 18.4893 32.4477 16.046C29.0275 17.6549 21.9885 23.3374 21.1947 33.1962C22.9512 33.3406 26.2915 33.7554 29.5832 29.7706C31.4841 31.4302 36.0222 34.5619 38.9674 33.812C39.067 34.573 39.1304 35.4251 39.1498 36.3341M42.6871 38.9482C42.6871 36.5314 39.7293 36.1316 39.1498 36.3341M42.6871 38.9482C42.6871 42.2172 41.8652 44.3539 37.7855 45.5198M39.1498 36.3341C39.2105 39.1877 38.8368 42.6022 37.7855 45.5198M23.2397 44.8421C24.1301 45.8174 26.6453 47.1827 29.5832 44.8421M20.6797 38.0763H23.2397M30.5545 38.0763H33.2555" stroke="#303030" stroke-width="2" stroke-linecap="round" stroke-linejoin="round"/>
<path d="M42.802 50.9797L42.802 50.9797C40.1519 53.6298 40.1519 57.9264 42.802 60.5764L52.6791 70.4537L53.3863 71.1608L54.0934 70.4537L63.9705 60.5764C63.9705 60.5764 63.9705 60.5764 63.9705 60.5764C66.6206 57.9264 66.6205 53.6298 63.9705 50.9797L63.2634 51.6868L63.9705 50.9797C61.3204 48.3297 57.0239 48.3297 54.3738 50.9797L53.3863 51.9673L52.3987 50.9797L51.6916 51.6868L52.3987 50.9797C49.7487 48.3297 45.4521 48.3297 42.802 50.9797Z" fill="#AD4E2C" stroke="white" stroke-width="2"/>
</svg>
