<svg width="81" height="80" viewBox="0 0 81 80" fill="none" xmlns="http://www.w3.org/2000/svg">
<circle cx="41.2659" cy="27.9759" r="18.1145" fill="white" stroke="#303030" stroke-width="2"/>
<path d="M35.6055 29.0817H42.4116C44.9054 29.0817 46.927 27.0601 46.927 24.5663V24.5663C46.927 22.0725 44.9054 20.0509 42.4116 20.0509H37.709V35.9011M35.6055 33.3617H43.7457" stroke="#303030" stroke-width="2" stroke-linecap="round" stroke-linejoin="round"/>
<path d="M71.9654 55.6275C72.1567 55.2882 72.6453 55.2882 72.8366 55.6275L74.0854 57.8431C74.1568 57.9697 74.2797 58.059 74.4221 58.0878L76.9152 58.5908C77.297 58.6678 77.448 59.1326 77.1844 59.4193L75.4631 61.2917C75.3648 61.3986 75.3178 61.5431 75.3345 61.6875L75.6265 64.214C75.6712 64.6009 75.2759 64.8881 74.9217 64.726L72.6091 63.6676C72.477 63.6071 72.3251 63.6071 72.1929 63.6676L69.8803 64.726C69.5261 64.8881 69.1308 64.6009 69.1755 64.214L69.4675 61.6875C69.4842 61.5431 69.4373 61.3986 69.3389 61.2917L67.6177 59.4193C67.354 59.1326 67.505 58.6678 67.8869 58.5908L70.3799 58.0878C70.5224 58.059 70.6453 57.9697 70.7166 57.8431L71.9654 55.6275Z" fill="#AD4E2C"/>
<path d="M9.43494 55.6275C9.24369 55.2882 8.75505 55.2882 8.56379 55.6275L7.31498 57.8431C7.24362 57.9697 7.12073 58.059 6.97829 58.0878L4.4852 58.5908C4.10339 58.6678 3.95239 59.1326 4.216 59.4193L5.93728 61.2917C6.03562 61.3986 6.08256 61.5431 6.06588 61.6875L5.77388 64.214C5.72917 64.6009 6.12448 64.8881 6.47866 64.726L8.79129 63.6676C8.92342 63.6071 9.07532 63.6071 9.20745 63.6676L11.5201 64.726C11.8743 64.8881 12.2696 64.6009 12.2249 64.214L11.9329 61.6875C11.9162 61.5431 11.9631 61.3986 12.0615 61.2917L13.7827 59.4193C14.0463 59.1326 13.8953 58.6678 13.5135 58.5908L11.0204 58.0878C10.878 58.059 10.7551 57.9697 10.6838 57.8431L9.43494 55.6275Z" fill="#AD4E2C"/>
<path d="M57.8219 54.4214C58.0169 54.1022 58.4805 54.1022 58.6754 54.4214L60.4683 57.3577C60.5422 57.4787 60.6641 57.5627 60.8035 57.5887L64.3166 58.243C64.7116 58.3165 64.8629 58.8026 64.5793 59.0873L62.2002 61.4761C62.0916 61.5852 62.0392 61.7383 62.0584 61.8911L62.4665 65.1511C62.5144 65.5332 62.1305 65.8236 61.7758 65.6738L58.4433 64.2659C58.3189 64.2133 58.1785 64.2133 58.0541 64.2659L54.7215 65.6738C54.3668 65.8236 53.983 65.5332 54.0308 65.1511L54.439 61.8911C54.4581 61.7383 54.4058 61.5852 54.2971 61.4761L51.9181 59.0873C51.6345 58.8026 51.7857 58.3165 52.1808 58.243L55.6938 57.5887C55.8333 57.5627 55.9551 57.4787 56.029 57.3577L57.8219 54.4214Z" fill="#AD4E2C"/>
<path d="M23.5785 54.4214C23.3835 54.1022 22.9199 54.1022 22.725 54.4214L20.9321 57.3577C20.8581 57.4787 20.7363 57.5627 20.5969 57.5887L17.0838 58.243C16.6887 58.3165 16.5375 58.8026 16.8211 59.0873L19.2002 61.4761C19.3088 61.5852 19.3612 61.7383 19.342 61.8911L18.9339 65.1511C18.886 65.5332 19.2699 65.8236 19.6246 65.6738L22.9571 64.2659C23.0815 64.2133 23.2219 64.2133 23.3463 64.2659L26.6789 65.6738C27.0336 65.8236 27.4174 65.5332 27.3696 65.1511L26.9614 61.8911C26.9423 61.7383 26.9946 61.5852 27.1033 61.4761L29.4823 59.0873C29.7659 58.8026 29.6147 58.3165 29.2196 58.243L25.7066 57.5887C25.5671 57.5627 25.4453 57.4787 25.3714 57.3577L23.5785 54.4214Z" fill="#AD4E2C"/>
<path d="M40.8303 51.665C41.0216 51.3257 41.5102 51.3257 41.7015 51.665L44.208 56.1121C44.2794 56.2386 44.4023 56.3279 44.5447 56.3567L49.5487 57.3663C49.9305 57.4434 50.0815 57.9081 49.8179 58.1948L46.3631 61.9529C46.2647 62.0599 46.2178 62.2044 46.2345 62.3487L46.8205 67.4198C46.8653 67.8067 46.4699 68.0939 46.1158 67.9318L41.474 65.8074C41.3419 65.7469 41.19 65.7469 41.0578 65.8074L36.4161 67.9318C36.0619 68.0939 35.6666 67.8067 35.7113 67.4198L36.2974 62.3487C36.3141 62.2044 36.2671 62.0599 36.1688 61.9529L32.7139 58.1948C32.4503 57.9081 32.6013 57.4434 32.9831 57.3663L37.9871 56.3567C38.1296 56.3279 38.2524 56.2386 38.3238 56.1121L40.8303 51.665Z" fill="#AD4E2C"/>
</svg>
