<svg width="81" height="80" viewBox="0 0 81 80" fill="none" xmlns="http://www.w3.org/2000/svg">
<path d="M15.5415 18.2422C15.3575 15.916 17.1956 13.9268 19.5291 13.9268H37.9287C40.2723 13.9268 42.1138 15.9325 41.9141 18.2675L41.5892 22.0677L38.745 55.33V66.722C38.745 67.2743 38.2973 67.722 37.745 67.722H23.432H19.4752C18.9229 67.722 18.4752 67.2743 18.4752 66.722V55.33L15.8442 22.0677L15.5415 18.2422Z" fill="white"/>
<path d="M18.4752 55.33V66.722C18.4752 67.2743 18.9229 67.722 19.4752 67.722H23.432M18.4752 55.33H29.7257M18.4752 55.33L15.8442 22.0677M15.8442 22.0677L15.5415 18.2422C15.3575 15.916 17.1956 13.9268 19.5291 13.9268H37.9287C40.2723 13.9268 42.1138 15.9325 41.9141 18.2675L41.5892 22.0677M15.8442 22.0677H41.5892M41.5892 22.0677L38.745 55.33V66.722C38.745 67.2743 38.2973 67.722 37.745 67.722H23.432M23.432 67.722V64.4997C23.432 63.3951 24.3275 62.4997 25.432 62.4997H32.726" stroke="#303030" stroke-width="2" stroke-linecap="round"/>
<rect x="28.7422" y="30.2153" width="8.92442" height="8.92442" rx="1" transform="rotate(45 28.7422 30.2153)" stroke="#303030" stroke-width="2"/>
<rect x="37.5781" y="46.0991" width="27.7867" height="6.88394" rx="2" fill="#AD4E2C" stroke="white" stroke-width="2"/>
<path d="M63.0488 69.5049C65.8103 69.5049 68.0488 67.2663 68.0488 64.5049L68.0488 54.9064C68.0488 53.8018 67.1534 52.9064 66.0488 52.9064L37.4927 52.9064C36.3881 52.9064 35.4927 53.8018 35.4927 54.9064L35.4927 64.5049C35.4927 67.2663 37.7312 69.5049 40.4927 69.5049L63.0488 69.5049Z" fill="#AD4E2C" stroke="white" stroke-width="2"/>
<path d="M47.8792 58.1702C46.8559 58.1702 46.0264 58.9997 46.0264 60.023C46.0264 61.0462 46.8559 61.8757 47.8792 61.8757L55.6387 61.8757C56.662 61.8757 57.4915 61.0462 57.4915 60.023C57.4915 58.9997 56.662 58.1702 55.6387 58.1702L47.8792 58.1702Z" fill="#AD4E2C" stroke="white" stroke-width="2" stroke-linecap="round"/>
<path d="M62.891 46.1764C63.2332 46.1764 63.5517 46.0014 63.7351 45.7126C63.9186 45.4237 63.9417 45.0611 63.7962 44.7514C63.2206 43.5255 61.2098 41.7384 57.4948 41.8007C54.1233 41.8572 51.3524 41.8241 50.3974 41.8008L50.373 41.8005C50.1585 41.8005 49.7692 41.7705 49.374 41.678C48.9556 41.58 48.6672 41.4433 48.5294 41.3174C48.0018 40.8357 47.5307 40.4135 47.2594 40.1723C47.0719 39.8435 46.7225 39.522 46.1553 39.4981C45.5223 39.4714 44.9628 39.8616 44.5006 40.3084L45.1957 41.0274L44.5006 40.3084C43.7809 41.0042 42.309 41.7901 41.6232 42.1039C41.5811 42.1231 41.5404 42.1453 41.5014 42.1702C41.1203 42.4133 40.5535 42.8233 40.0756 43.282C39.8379 43.5101 39.5924 43.7785 39.4042 44.0689C39.2317 44.335 39.0153 44.7592 39.0569 45.2594C39.1001 45.7777 39.5334 46.1764 40.0535 46.1764H62.891ZM41.0372 45.2386C41.0371 45.2386 41.0377 45.2368 41.0394 45.2329C41.0382 45.2367 41.0373 45.2386 41.0372 45.2386Z" fill="#AD4E2C" stroke="white" stroke-width="2" stroke-linejoin="round"/>
</svg>
