<svg width="267" height="56" viewBox="0 0 267 56" fill="none" xmlns="http://www.w3.org/2000/svg">
<circle cx="31.4655" cy="27.7763" r="26.4384" stroke="#AD4E2C" stroke-width="1.5"/>
<path d="M25.9728 53.7491C25.4142 49.7772 25.8238 40.5113 31.9307 35.2236C39.5643 28.614 42.7295 26.4729 45.0569 19.6771C46.9187 14.2404 46.8877 8.53692 46.6394 6.36475" stroke="#AD4E2C" stroke-width="1.5"/>
<path d="M15.9658 48.6407C18.7896 47.6787 22.9846 44.6004 24.9654 37.7817C27.4906 29.0886 23.1412 16.6251 26.676 10.2625C29.6511 4.90739 35.5268 2.45508 38.82 2.45508" stroke="#AD4E2C" stroke-width="1.5"/>
<path d="M36.4926 53.7491C34.4135 51.608 31.1677 45.7803 34.8169 39.599C39.3785 31.8722 45.9881 33.1755 51.1082 28.1485C55.2043 24.1269 56.5998 20.8931 56.724 19.9312" stroke="#AD4E2C" stroke-width="1.5"/>
<path d="M23.1799 2.64111C26.0038 4.06854 32.4706 8.76664 35.7475 16.1396C39.8436 25.3558 38.235 29.8895 42.3689 35.4759C45.1209 39.1947 47.5009 40.831 54.4592 40.3438" stroke="#AD4E2C" stroke-width="1.5"/>
<path d="M24.018 53.0976C23.5215 52.4459 22.2678 49.0573 21.2252 40.7162C19.6283 27.941 11.2952 22.2838 6.98193 18.2808" stroke="#AD4E2C" stroke-width="1.5"/>
<path d="M17.2222 50.1188C16.5395 48.35 12.157 41.2565 16.2631 35.1786C21.6103 27.2633 18.2712 26.2534 18.6431 18.9645C18.9279 13.3817 18.6431 8.25434 23.4032 2.75049" stroke="#AD4E2C" stroke-width="1.5"/>
<path d="M12.009 10.1816C13.964 11.6401 19.0469 14.8735 23.7388 16.1396C29.6036 17.7222 34.0721 22.2837 35.934 26.2867C37.7958 30.2897 39.3198 34.1371 39.3198 41.6491C39.3198 47.3273 41.328 49.8305 42.4436 51.5412" stroke="#AD4E2C" stroke-width="1.5"/>
<path d="M28.9055 49.6534C29.762 50.5471 31.869 50.3982 32.8154 50.212C32.5517 49.3276 31.8193 47.3447 31.0001 46.4883C30.1809 45.6318 28.3625 45.3556 27.5557 45.3246C27.6488 46.3952 28.0491 48.7597 28.9055 49.6534Z" fill="#AD4E2C"/>
<path d="M29.7899 43.9748C30.0506 44.8312 31.2949 45.4487 31.8845 45.6504C32.0086 45.3091 32.1824 44.3285 31.8845 43.1369C31.5866 41.9453 30.7053 41.3682 30.3019 41.2285C30.0226 41.7871 29.5292 43.1183 29.7899 43.9748Z" fill="#AD4E2C"/>
<path d="M46.8488 43.3676C47.9439 42.8962 48.2858 41.7529 48.3199 41.2401C47.838 41.0888 46.6836 40.9062 45.9215 41.3862C45.1594 41.8662 44.854 43.2049 44.7966 43.8142C45.0244 43.8618 45.7538 43.839 46.8488 43.3676Z" fill="#AD4E2C"/>
<path d="M50.5885 35.2123C49.158 35.4864 48.1933 37.0913 47.8897 37.8594C48.6323 38.2127 50.4309 38.8745 51.6848 38.6953C52.9387 38.5162 54.0158 36.3865 54.3977 35.344C53.724 35.1859 52.0191 34.9383 50.5885 35.2123Z" fill="#AD4E2C"/>
<path d="M45.6858 35.7663C45.5725 36.7535 46.3022 37.3518 46.6812 37.5276C46.8677 37.3816 47.266 36.8994 47.3674 36.1384C47.4687 35.3775 46.8793 34.4448 46.5719 34.0735C46.3238 34.2265 45.7991 34.7792 45.6858 35.7663Z" fill="#AD4E2C"/>
<path d="M59.859 37.4113C58.7791 37.8581 58.416 39.3352 58.3695 40.0179C58.7263 40.0179 59.6542 39.9713 60.5106 39.7852C61.3671 39.599 61.8605 38.125 62.0001 37.4113C61.7363 37.2251 60.9388 36.9644 59.859 37.4113Z" fill="#AD4E2C"/>
<path d="M58.0437 41.0884C56.5914 40.9395 55.1733 42.4538 54.6458 43.2296C55.1267 43.7106 56.4797 44.6912 58.0437 44.7656C59.6076 44.8401 61.0226 42.9348 61.5346 41.9728C60.9761 41.7401 59.4959 41.2374 58.0437 41.0884Z" fill="#AD4E2C"/>
<path d="M47.8662 21.6489C46.6746 21.7606 46.0664 23.0297 45.9113 23.6504C46.2138 23.7822 47.0796 24.0181 48.1222 23.9064C49.1649 23.7947 49.8755 22.7117 50.1005 22.1841C49.8522 21.9592 49.0578 21.5371 47.8662 21.6489Z" fill="#AD4E2C"/>
<path d="M46.656 24.9769C45.3155 24.8839 43.7701 25.9777 43.165 26.5363C43.584 27.0405 44.8174 28.1188 46.4 28.3981C47.9826 28.6774 49.5264 27.0715 50.1005 26.2337C49.5109 25.8536 47.9966 25.07 46.656 24.9769Z" fill="#AD4E2C"/>
<path d="M41.4245 10.0652C41.6293 11.4988 43.1235 12.9278 43.8449 13.4631C44.3492 12.5399 45.2693 10.405 44.9155 9.25063C44.5618 8.09628 42.8287 6.84573 42.0063 6.36475C41.7271 7.00088 41.2197 8.63156 41.4245 10.0652Z" fill="#AD4E2C"/>
<path d="M41.7038 13.1838C42.7837 13.4631 43.2864 14.5569 43.4027 15.069C43.1467 15.2396 42.3927 15.5251 41.4245 15.3017C40.4564 15.0783 39.6092 14.1225 39.3066 13.6726C39.6557 13.3933 40.6239 12.9045 41.7038 13.1838Z" fill="#AD4E2C"/>
<path d="M49.1064 2.96717C48.3244 3.45125 48.0358 4.65836 47.9893 5.2014C48.3617 5.2014 49.3484 5.12693 50.3166 4.82902C51.2848 4.53112 51.5268 3.24644 51.5268 2.64134C51.0458 2.54825 49.8884 2.48308 49.1064 2.96717Z" fill="#AD4E2C"/>
<path d="M46.2671 2.26896C46.0436 1.7104 45.212 1.19839 44.8241 1.01221C44.6379 1.43113 44.3773 2.4086 44.8241 2.96717C45.271 3.52573 45.9723 4.03774 46.2671 4.22392C46.3602 3.805 46.4905 2.82753 46.2671 2.26896Z" fill="#AD4E2C"/>
<path d="M35.422 9.2973C34.64 9.52072 34.2583 10.6937 34.1652 11.2523C34.429 11.3609 35.1427 11.5129 35.8874 11.2523C36.6322 10.9916 37.1287 9.99549 37.2838 9.53003C36.989 9.35936 36.2039 9.07387 35.422 9.2973Z" fill="#AD4E2C"/>
<path d="M19.7823 1.94296C20.7132 2.35257 21.6597 1.92745 22.0166 1.66368C22.0166 1.39992 21.8024 0.751372 20.946 0.267288C20.0895 -0.216796 19.1307 0.0655861 18.7583 0.267288C18.7117 0.655176 18.8514 1.53335 19.7823 1.94296Z" fill="#AD4E2C"/>
<path d="M51.0518 16.5163C52.2182 16.589 53.3872 15.9129 53.8259 15.5658C53.5232 15.1611 52.626 14.304 51.4586 14.1136C50.2912 13.9231 49.215 15.1283 48.8227 15.7547C49.0797 15.9783 49.8854 16.4436 51.0518 16.5163Z" fill="#AD4E2C"/>
<path d="M52.6354 17.5482C51.9439 17.9426 51.593 19.0534 51.504 19.5595C51.917 19.664 52.8979 19.7216 53.5169 19.1159C54.136 18.5101 54.3027 17.4362 54.3087 16.9749C54.039 17.0017 53.3269 17.1538 52.6354 17.5482Z" fill="#AD4E2C"/>
<path d="M13.7313 34.0135C14.6994 34.3487 15.7483 34.1532 16.1517 34.0135C15.981 33.5636 15.4255 32.5427 14.5691 32.0586C13.7126 31.5745 12.5055 32.2603 12.009 32.6637C12.1797 32.974 12.7631 33.6784 13.7313 34.0135Z" fill="#AD4E2C"/>
<path d="M56.3508 30.0057C56.0881 29.1126 54.9577 28.4585 54.4253 28.2432C54.219 28.7955 53.9091 30.0776 54.3198 30.7875C54.7304 31.4973 56.0939 32.1125 56.7243 32.3314C56.7093 31.9283 56.6135 30.8988 56.3508 30.0057Z" fill="#AD4E2C"/>
<path d="M10.7319 37.3252C10.8339 36.3999 10.0432 35.3605 9.63501 34.9565C9.23171 35.3866 8.45139 36.4501 8.55655 37.2634C8.66171 38.0767 9.68254 39.1701 10.1798 39.6151C10.3214 39.2374 10.6299 38.2505 10.7319 37.3252Z" fill="#AD4E2C"/>
<path d="M12.4976 17.6127C13.2795 18.6554 15.0266 19.2264 15.8024 19.3815C15.9886 18.4971 16.1375 16.4491 15.2438 15.332C14.3501 14.2148 12.2338 13.9666 11.2874 13.9821C11.3649 14.7579 11.7156 16.5701 12.4976 17.6127Z" fill="#AD4E2C"/>
<path d="M14.639 22.314C15.3465 22.0905 15.8958 21.1348 16.082 20.6848C15.7406 20.4986 14.8532 20.1914 14.0339 20.4521C13.2147 20.7128 12.7927 21.4296 12.6841 21.7554C13.0409 22.0347 13.9315 22.5374 14.639 22.314Z" fill="#AD4E2C"/>
<path d="M1.90837 15.255C2.50417 16.4466 4.35983 17.3961 5.21318 17.722C5.49247 16.8996 5.82763 14.9105 4.93393 13.5328C4.04024 12.155 2.20318 11.8105 1.39636 11.8105C1.31878 12.4622 1.31258 14.0634 1.90837 15.255Z" fill="#AD4E2C"/>
<path d="M1.90837 20.0027C2.91375 20.0027 3.94092 19.5373 4.32883 19.3045C4.11161 18.9011 3.41652 18.0199 2.37387 17.722C1.33123 17.4241 0.356857 18.4977 0 19.0718C0.217217 19.3821 0.902996 20.0027 1.90837 20.0027Z" fill="#AD4E2C"/>
<path d="M18.8979 55.3316C20.1267 55.406 20.8373 54.4627 21.039 53.9817C20.527 53.6249 19.3075 52.9484 18.5255 53.0973C17.7435 53.2463 16.8343 53.9662 16.4775 54.3075C16.7723 54.6179 17.6691 55.2571 18.8979 55.3316Z" fill="#AD4E2C"/>
<mask id="path-24-outside-1_629_6733" maskUnits="userSpaceOnUse" x="15.9756" y="11.981" width="28" height="37" fill="black">
<rect fill="white" x="15.9756" y="11.981" width="28" height="37"/>
<path fill-rule="evenodd" clip-rule="evenodd" d="M26.6487 16.705C26.9753 17.575 28.2933 17.9773 28.9591 17.3289C30.6624 15.6698 33.0483 13.9809 35.42 13.9809C39.7896 13.9809 41.1098 17.8113 41.1098 19.7451V41.7047C41.1098 42.7719 41.3004 44.0171 41.6033 45.0987C41.8023 45.8093 41.2935 46.5949 40.5556 46.5949H38.805C38.4184 46.5949 38.0616 46.3738 37.9347 46.0086C37.5575 44.9238 37.3166 43.3987 37.3166 41.7047V21.0467C37.3166 19.7451 36.6844 17.0117 33.7651 17.0117C31.6452 17.0117 28.8951 19.3609 27.4646 20.8606C27.2929 21.0406 27.2012 21.2811 27.2012 21.5298V35.2939C27.2012 35.8462 26.7535 36.2939 26.2012 36.2939H24.3708C23.8186 36.2939 23.3708 35.8462 23.3708 35.2939V20.5075C23.3708 17.328 22.6457 16.2867 21.3813 16.2867C19.7981 16.2867 19.3119 18.0126 19.0795 19.3239C19.0309 19.5981 18.7958 19.801 18.5174 19.801C18.1941 19.801 17.9358 19.5297 17.9808 19.2095C18.2631 17.2004 19.5242 14.074 22.9432 14.074C25.016 14.074 26.096 15.2324 26.6487 16.705Z"/>
</mask>
<path fill-rule="evenodd" clip-rule="evenodd" d="M26.6487 16.705C26.9753 17.575 28.2933 17.9773 28.9591 17.3289C30.6624 15.6698 33.0483 13.9809 35.42 13.9809C39.7896 13.9809 41.1098 17.8113 41.1098 19.7451V41.7047C41.1098 42.7719 41.3004 44.0171 41.6033 45.0987C41.8023 45.8093 41.2935 46.5949 40.5556 46.5949H38.805C38.4184 46.5949 38.0616 46.3738 37.9347 46.0086C37.5575 44.9238 37.3166 43.3987 37.3166 41.7047V21.0467C37.3166 19.7451 36.6844 17.0117 33.7651 17.0117C31.6452 17.0117 28.8951 19.3609 27.4646 20.8606C27.2929 21.0406 27.2012 21.2811 27.2012 21.5298V35.2939C27.2012 35.8462 26.7535 36.2939 26.2012 36.2939H24.3708C23.8186 36.2939 23.3708 35.8462 23.3708 35.2939V20.5075C23.3708 17.328 22.6457 16.2867 21.3813 16.2867C19.7981 16.2867 19.3119 18.0126 19.0795 19.3239C19.0309 19.5981 18.7958 19.801 18.5174 19.801C18.1941 19.801 17.9358 19.5297 17.9808 19.2095C18.2631 17.2004 19.5242 14.074 22.9432 14.074C25.016 14.074 26.096 15.2324 26.6487 16.705Z" fill="#AD4E2C"/>
<path d="M19.0795 19.3239L17.6025 19.0622L19.0795 19.3239ZM37.9347 46.0086L39.3515 45.5161L37.9347 46.0086ZM27.4646 20.8606L26.3792 19.8253L27.4646 20.8606ZM41.6033 45.0987L43.0477 44.6942L41.6033 45.0987ZM35.42 12.4809C32.4202 12.4809 29.6604 14.5519 27.9125 16.2543L30.0057 18.4034C31.6645 16.7877 33.6765 15.4809 35.42 15.4809V12.4809ZM42.6098 19.7451C42.6098 18.5036 42.2027 16.7421 41.1146 15.2529C39.9766 13.6953 38.1175 12.4809 35.42 12.4809V15.4809C37.0921 15.4809 38.0778 16.1817 38.6923 17.0227C39.3567 17.9321 39.6098 19.0528 39.6098 19.7451H42.6098ZM42.6098 41.7047V19.7451H39.6098V41.7047H42.6098ZM43.0477 44.6942C42.7761 43.7244 42.6098 42.6159 42.6098 41.7047H39.6098C39.6098 42.9278 39.8246 44.3099 40.1589 45.5033L43.0477 44.6942ZM38.805 48.0949H40.5556V45.0949H38.805V48.0949ZM35.8166 41.7047C35.8166 43.5212 36.0726 45.2203 36.5178 46.5011L39.3515 45.5161C39.0425 44.6273 38.8166 43.2761 38.8166 41.7047H35.8166ZM35.8166 21.0467V41.7047H38.8166V21.0467H35.8166ZM33.7651 18.5117C34.6522 18.5117 35.0811 18.8791 35.3596 19.3298C35.6932 19.8694 35.8166 20.5796 35.8166 21.0467H38.8166C38.8166 20.2121 38.6239 18.9049 37.9115 17.7524C37.1441 16.511 35.7973 15.5117 33.7651 15.5117V18.5117ZM28.55 21.896C29.2151 21.1987 30.1814 20.3116 31.2039 19.6114C32.2827 18.8726 33.1809 18.5117 33.7651 18.5117V15.5117C32.2295 15.5117 30.6927 16.3254 29.5088 17.1362C28.2687 17.9854 27.1447 19.0228 26.3792 19.8253L28.55 21.896ZM28.7012 35.2939V21.5298H25.7012V35.2939H28.7012ZM24.3708 37.7939H26.2012V34.7939H24.3708V37.7939ZM21.8708 20.5075V35.2939H24.8708V20.5075H21.8708ZM21.3813 17.7867C21.4879 17.7867 21.4898 17.8068 21.4545 17.7857C21.4175 17.7635 21.4501 17.7625 21.5172 17.8925C21.6848 18.2174 21.8708 18.9697 21.8708 20.5075H24.8708C24.8708 18.8658 24.6943 17.5076 24.1833 16.517C23.911 15.9892 23.5252 15.5292 22.9966 15.2124C22.4698 14.8967 21.9068 14.7867 21.3813 14.7867V17.7867ZM20.5565 19.5857C20.6681 18.9558 20.8131 18.4221 21.0184 18.0713C21.112 17.9113 21.1863 17.8465 21.2218 17.8227C21.2415 17.8095 21.2769 17.7867 21.3813 17.7867V14.7867C19.9054 14.7867 18.9604 15.6485 18.4293 16.5558C17.9377 17.3957 17.7233 18.3806 17.6025 19.0622L20.5565 19.5857ZM22.9432 12.574C20.696 12.574 19.1063 13.6335 18.0876 14.9858C17.11 16.2836 16.6593 17.8342 16.4954 19.0007L19.4662 19.4183C19.5846 18.5757 19.9056 17.5585 20.4838 16.7908C21.021 16.0777 21.7714 15.574 22.9432 15.574V12.574ZM28.0531 16.1779C27.7122 15.2698 27.1696 14.3521 26.2972 13.6613C25.4048 12.9547 24.2785 12.574 22.9432 12.574V15.574C23.6807 15.574 24.1308 15.7725 24.4348 16.0132C24.7588 16.2698 25.0325 16.6676 25.2444 17.2321L28.0531 16.1779ZM17.6025 19.0622C17.677 18.6419 18.0464 18.301 18.5174 18.301V21.301C19.5453 21.301 20.3848 20.5543 20.5565 19.5857L17.6025 19.0622ZM24.3708 34.7939C24.647 34.7939 24.8708 35.0178 24.8708 35.2939H21.8708C21.8708 36.6746 22.9901 37.7939 24.3708 37.7939V34.7939ZM25.7012 35.2939C25.7012 35.0178 25.9251 34.7939 26.2012 34.7939V37.7939C27.5819 37.7939 28.7012 36.6746 28.7012 35.2939H25.7012ZM38.805 45.0949C38.9662 45.0949 39.2404 45.1965 39.3515 45.5161L36.5178 46.5011C36.8828 47.551 37.8707 48.0949 38.805 48.0949V45.0949ZM26.3792 19.8253C25.9286 20.2978 25.7012 20.9146 25.7012 21.5298H28.7012C28.7012 21.6476 28.6573 21.7835 28.55 21.896L26.3792 19.8253ZM18.5174 18.301C19.0161 18.301 19.5602 18.7495 19.4662 19.4183L16.4954 19.0007C16.3114 20.3098 17.3721 21.301 18.5174 21.301V18.301ZM40.1589 45.5033C40.13 45.4 40.156 45.3203 40.1916 45.268C40.2332 45.2071 40.3564 45.0949 40.5556 45.0949V48.0949C42.4499 48.0949 43.469 46.1981 43.0477 44.6942L40.1589 45.5033ZM27.9125 16.2543C27.947 16.2207 27.9847 16.1953 28.0202 16.1778C28.0549 16.1608 28.0824 16.1537 28.0983 16.1509C28.1259 16.1459 28.1196 16.1528 28.0849 16.143C28.051 16.1334 28.0251 16.1175 28.0142 16.1084C28.0045 16.1003 28.0308 16.1185 28.0531 16.1779L25.2444 17.2321C25.6118 18.211 26.4666 18.803 27.2685 19.0297C28.0712 19.2568 29.1788 19.2088 30.0057 18.4034L27.9125 16.2543Z" fill="white" mask="url(#path-24-outside-1_629_6733)"/>
<path d="M10.6865 29.7245C12.0733 30.0083 13.8019 29.0022 14.4929 28.4637C13.9774 27.7987 12.6159 26.4222 11.294 26.2368C9.97213 26.0513 8.29027 27.5556 7.61457 28.331C8.06073 28.6772 9.29976 29.4408 10.6865 29.7245Z" fill="#AD4E2C"/>
<path d="M29.3926 29.2867C28.5638 29.7659 28.095 30.9669 27.9642 31.5075C28.4232 31.5816 29.5484 31.6099 30.3772 31.1307C31.206 30.6515 31.2858 29.3395 31.222 28.7434C30.9575 28.7248 30.2214 28.8075 29.3926 29.2867Z" fill="#AD4E2C"/>
<path d="M28.628 25.2408C28.1513 26.1205 28.1144 27.7079 28.1556 28.3916C28.6762 28.237 29.7895 27.9744 30.7052 27.0032C31.621 26.0321 31.1135 24.4542 30.6784 23.8065C30.186 24.0013 29.1048 24.3612 28.628 25.2408Z" fill="#AD4E2C"/>
<path d="M22.7373 11.4121C23.2667 12.1483 24.2343 12.3109 24.652 12.3001C24.6826 11.9673 24.6168 11.1355 24.1086 10.4707C23.6005 9.80589 22.594 9.51241 22.1543 9.44878C22.128 9.79646 22.2079 10.6759 22.7373 11.4121Z" fill="#AD4E2C"/>
<path d="M79.7982 13.968C88.5022 13.968 91.4782 19.184 91.4782 25.936C91.4782 34.32 86.3582 37.712 79.7022 37.712C74.4862 37.712 72.0222 35.152 70.8062 34.032L72.4382 32.08C73.6542 33.2 75.6062 35.248 79.7022 35.248C80.9182 35.248 86.0382 34.736 86.4542 26.768H76.1182V24.4H86.4542C86.1662 19.984 84.5022 16.4 79.7022 16.4C78.1662 16.4 76.9502 16.72 75.9262 17.136C73.4622 18.352 73.4622 20.624 73.4622 20.624L73.3662 20.72L70.9022 17.648C72.1182 16.528 74.4862 13.968 79.7982 13.968ZM97.534 14.64H116.766V18.416H116.574C116.158 18.032 115.038 17.008 111.358 17.008H109.502V31.856C109.502 35.44 110.526 36.56 110.942 36.976V37.168H103.358V36.976C103.774 36.56 104.798 35.44 104.798 31.856V17.104H102.942C99.262 17.104 98.142 18.128 97.726 18.544H97.534V14.64ZM135.716 37.2V36.88C136.1 36.56 136.516 35.344 135.076 31.664H123.012L122.916 31.856C121.476 35.44 121.892 36.688 122.276 36.976V37.2H119.332L126.18 20.304C127.62 16.592 127.3 15.472 126.884 15.056V14.864H134.052V14.96C133.668 15.376 133.348 16.496 134.788 20.176L141.732 37.2H135.716ZM124.036 29.392V29.296H133.956L129.156 17.52H128.836L124.036 29.392ZM167.41 41.456C169.97 41.456 171.698 39.216 171.602 39.088L173.234 41.04C170.994 43.696 168.626 43.824 167.314 43.824C162.098 43.824 159.538 40.24 159.122 37.776H159.026C158.706 37.776 158.386 37.776 158.098 37.776C151.218 37.36 147.25 33.264 147.25 26C147.25 19.024 151.122 14.224 159.026 14.224H163.922C171.826 14.224 175.698 18.928 175.698 26C175.698 33.264 171.602 37.456 164.85 37.776C164.658 37.776 164.338 37.776 164.018 37.776C164.338 40.624 166.066 41.456 167.41 41.456ZM159.026 35.408V16.464C153.682 16.464 152.466 19.44 152.466 26C152.466 32.56 153.682 35.408 159.026 35.408ZM164.018 16.464V35.408C169.362 35.408 170.578 32.56 170.578 26C170.578 19.344 169.362 16.464 164.018 16.464ZM193.062 14.864C194.694 14.864 202.598 14.864 202.79 21.712C202.79 29.008 195.11 29.008 193.158 29.008C191.11 29.008 189.286 29.008 189.286 29.008V31.76C189.286 35.44 190.31 36.56 190.694 36.976V37.2H183.142V36.976C183.526 36.688 184.55 35.44 184.55 31.76V20.304C184.55 16.592 183.526 15.472 183.142 15.056V14.864C183.142 14.864 191.43 14.864 193.062 14.864ZM193.062 26.64C193.062 26.64 197.99 26.832 197.99 21.712C197.99 17.104 193.062 17.232 193.062 17.232H189.158V26.64H193.062ZM221.723 17.232H215.771V24.592H223.867V26.96H215.771V34.736H221.723C225.403 34.736 226.523 33.712 226.939 33.296H227.163V37.2H209.755V36.976C210.139 36.688 211.163 35.44 211.163 31.76V20.304C211.163 16.592 210.139 15.472 209.755 15.056V14.864H227.163V18.64H226.939C226.523 18.256 225.403 17.232 221.723 17.232ZM265.758 14.96C265.342 15.376 264.318 16.496 264.222 20.304V31.76C264.222 35.44 265.246 36.56 265.662 36.976V37.2H234.43V36.976C234.814 36.688 235.838 35.44 235.838 31.76V20.304C235.838 16.592 234.814 15.472 234.43 15.056V14.864H241.982V14.96C241.598 15.376 240.574 16.496 240.574 20.08V34.832H249.278V20.304C249.278 16.592 248.254 15.472 247.838 15.056V14.864H252.35V15.056C251.934 15.376 250.91 16.592 250.91 20.304V34.928H259.614V20.176C259.614 16.592 258.59 15.472 258.174 15.056V14.864H265.758V14.96Z" fill="black"/>
</svg>
