<svg width="181" height="24" viewBox="0 0 181 24" fill="none" xmlns="http://www.w3.org/2000/svg">
<path d="M11.0636 5.82277H4.1933V17.6998H0.983398V2.78174H14.2735V17.6998H11.0636V5.82277Z" fill="#FF4A37"/>
<path d="M17.3975 2.78176H20.6074V4.417C21.2644 3.78586 21.9683 3.29816 22.7191 2.95389C23.47 2.60963 24.3147 2.4375 25.2533 2.4375C26.3045 2.4375 27.2712 2.63832 28.1535 3.03995C29.0545 3.42247 29.8241 3.96755 30.4623 4.67521C31.1005 5.36373 31.598 6.18617 31.9547 7.14237C32.3113 8.07959 32.4896 9.10281 32.4896 10.212C32.4896 11.3596 32.2925 12.4115 31.8983 13.3678C31.5229 14.305 31.0067 15.1178 30.3497 15.8064C29.6927 16.4757 28.9043 17.0017 27.9845 17.3843C27.0835 17.7667 26.1167 17.958 25.0843 17.958C24.1645 17.958 23.3386 17.8146 22.6065 17.5277C21.8744 17.2407 21.2081 16.8391 20.6074 16.3228V23.4375H17.3975V2.78176ZM24.6057 14.917C25.2439 14.917 25.8352 14.8118 26.3795 14.6014C26.9427 14.3911 27.4307 14.0851 27.8437 13.6834C28.2567 13.2627 28.5758 12.7654 28.8011 12.1916C29.0451 11.5987 29.1671 10.9293 29.1671 10.1834C29.1671 9.4949 29.0639 8.86376 28.8574 8.28994C28.6509 7.69704 28.3505 7.19977 27.9563 6.79815C27.5809 6.37736 27.1304 6.05221 26.6048 5.82279C26.0792 5.59328 25.4973 5.47848 24.8591 5.47848C23.8829 5.47848 23.0195 5.71753 22.2686 6.19571C21.5365 6.67381 20.9828 7.24764 20.6074 7.91701V12.4498C20.9828 13.2531 21.5177 13.8651 22.2123 14.2859C22.9068 14.7067 23.7047 14.917 24.6057 14.917Z" fill="#FF4A37"/>
<path d="M34.1572 10.212C34.1572 9.08365 34.3449 8.05089 34.7204 7.11376C35.0958 6.15748 35.6308 5.33504 36.3254 4.64652C37.0199 3.95799 37.8459 3.42247 38.8032 3.03995C39.7605 2.63832 40.8211 2.4375 41.9849 2.4375C43.13 2.4375 44.1812 2.63832 45.1385 3.03995C46.1146 3.42247 46.9499 3.95799 47.6445 4.64652C48.339 5.33504 48.874 6.15748 49.2495 7.11376C49.6437 8.05089 49.8407 9.08365 49.8407 10.212C49.8407 11.3405 49.6437 12.3828 49.2495 13.3391C48.874 14.2763 48.339 15.0891 47.6445 15.7777C46.9499 16.4662 46.1146 17.0017 45.1385 17.3843C44.1812 17.7667 43.13 17.958 41.9849 17.958C40.8399 17.958 39.7887 17.7667 38.8313 17.3843C37.874 17.0017 37.048 16.4662 36.3535 15.7777C35.6589 15.0891 35.1146 14.2763 34.7204 13.3391C34.3449 12.3828 34.1572 11.3405 34.1572 10.212ZM37.4798 10.212C37.4798 10.8815 37.5831 11.5031 37.7895 12.0768C38.0148 12.6506 38.3245 13.1479 38.7187 13.5686C39.1129 13.9894 39.5822 14.3241 40.1265 14.5728C40.6897 14.8022 41.3091 14.917 41.9849 14.917C42.6607 14.917 43.2707 14.8118 43.8151 14.6014C44.3782 14.3719 44.8569 14.0564 45.2511 13.6547C45.6453 13.234 45.955 12.7367 46.1803 12.1629C46.4055 11.5891 46.5182 10.9388 46.5182 10.212C46.5182 9.48527 46.3962 8.83506 46.1522 8.26124C45.9269 7.66834 45.6078 7.17107 45.1948 6.76945C44.7819 6.34866 44.3031 6.03314 43.7588 5.82279C43.2144 5.59328 42.6231 5.47848 41.9849 5.47848C41.3467 5.47848 40.746 5.59328 40.1829 5.82279C39.6385 6.03314 39.1599 6.34866 38.7469 6.76945C38.3527 7.17107 38.0429 7.66834 37.8177 8.26124C37.5924 8.83506 37.4798 9.48527 37.4798 10.212Z" fill="#FF4A37"/>
<path d="M50.6973 14.6588H52.3924C53.0516 13.7981 53.4942 12.8131 53.7202 11.7039C53.9463 10.5946 54.0592 9.34184 54.0592 7.94569V2.78174H65.8685V14.6588H67.9309V21.1137H64.9362V17.6998H53.692V21.1137H50.6973V14.6588ZM62.6478 14.6588V5.82277H57.1104V9.63829C57.1104 10.5563 56.988 11.4744 56.7431 12.3924C56.4983 13.2913 56.1593 14.0468 55.7261 14.6588H62.6478Z" fill="#3981F1"/>
<path d="M68.585 10.212C68.585 9.08365 68.7733 8.05089 69.15 7.11376C69.5266 6.15748 70.0634 5.33504 70.7603 4.64652C71.4572 3.95799 72.2859 3.42247 73.2464 3.03995C74.207 2.63832 75.2712 2.4375 76.439 2.4375C77.5878 2.4375 78.6426 2.63832 79.6031 3.03995C80.5826 3.42247 81.4207 3.95799 82.1175 4.64652C82.8144 5.33504 83.3512 6.15748 83.7278 7.11376C84.1234 8.05089 84.3212 9.08365 84.3212 10.212C84.3212 11.3405 84.1234 12.3828 83.7278 13.3391C83.3512 14.2763 82.8144 15.0891 82.1175 15.7777C81.4207 16.4662 80.5826 17.0017 79.6031 17.3843C78.6426 17.7667 77.5878 17.958 76.439 17.958C75.29 17.958 74.2352 17.7667 73.2747 17.3843C72.3141 17.0017 71.4854 16.4662 70.7886 15.7777C70.0916 15.0891 69.5455 14.2763 69.15 13.3391C68.7733 12.3828 68.585 11.3405 68.585 10.212ZM71.9186 10.212C71.9186 10.8815 72.0222 11.5031 72.2294 12.0768C72.4554 12.6506 72.7662 13.1479 73.1617 13.5686C73.5572 13.9894 74.0281 14.3241 74.5743 14.5728C75.1394 14.8022 75.7609 14.917 76.439 14.917C77.117 14.917 77.729 14.8118 78.2753 14.6014C78.8403 14.3719 79.3206 14.0564 79.7162 13.6547C80.1116 13.234 80.4224 12.7367 80.6485 12.1629C80.8744 11.5891 80.9875 10.9388 80.9875 10.212C80.9875 9.48527 80.8651 8.83506 80.6202 8.26124C80.3942 7.66834 80.074 7.17107 79.6596 6.76945C79.2452 6.34866 78.765 6.03314 78.2188 5.82279C77.6726 5.59328 77.0793 5.47848 76.439 5.47848C75.7986 5.47848 75.1958 5.59328 74.6308 5.82279C74.0846 6.03314 73.6043 6.34866 73.19 6.76945C72.7945 7.17107 72.4837 7.66834 72.2576 8.26124C72.0316 8.83506 71.9186 9.48527 71.9186 10.212Z" fill="#3981F1"/>
<path d="M86.3145 2.78174H89.5351V8.83504L95.8917 2.78174H100.101L92.9534 9.52358L100.356 17.6998H96.2311L90.6091 11.5604L89.5351 12.6219V17.6998H86.3145V2.78174Z" fill="#3981F1"/>
<path d="M101.372 2.78174H115.216V5.82277H109.904V17.6998H106.684V5.82277H101.372V2.78174Z" fill="#3981F1"/>
<path d="M115.92 10.212C115.92 9.08365 116.108 8.05089 116.486 7.11376C116.862 6.15748 117.399 5.33504 118.095 4.64652C118.792 3.95799 119.621 3.42247 120.582 3.03995C121.542 2.63832 122.607 2.4375 123.774 2.4375C124.923 2.4375 125.978 2.63832 126.939 3.03995C127.918 3.42247 128.756 3.95799 129.453 4.64652C130.149 5.33504 130.687 6.15748 131.063 7.11376C131.459 8.05089 131.656 9.08365 131.656 10.212C131.656 11.3405 131.459 12.3828 131.063 13.3391C130.687 14.2763 130.149 15.0891 129.453 15.7777C128.756 16.4662 127.918 17.0017 126.939 17.3843C125.978 17.7667 124.923 17.958 123.774 17.958C122.625 17.958 121.57 17.7667 120.61 17.3843C119.649 17.0017 118.82 16.4662 118.124 15.7777C117.427 15.0891 116.881 14.2763 116.486 13.3391C116.108 12.3828 115.92 11.3405 115.92 10.212ZM119.254 10.212C119.254 10.8815 119.358 11.5031 119.564 12.0768C119.791 12.6506 120.101 13.1479 120.497 13.5686C120.892 13.9894 121.364 14.3241 121.91 14.5728C122.474 14.8022 123.096 14.917 123.774 14.917C124.452 14.917 125.065 14.8118 125.611 14.6014C126.176 14.3719 126.656 14.0564 127.052 13.6547C127.447 13.234 127.758 12.7367 127.983 12.1629C128.21 11.5891 128.323 10.9388 128.323 10.212C128.323 9.48527 128.2 8.83506 127.955 8.26124C127.73 7.66834 127.409 7.17107 126.995 6.76945C126.58 6.34866 126.1 6.03314 125.554 5.82279C125.008 5.59328 124.414 5.47848 123.774 5.47848C123.134 5.47848 122.531 5.59328 121.966 5.82279C121.42 6.03314 120.939 6.34866 120.525 6.76945C120.129 7.17107 119.819 7.66834 119.593 8.26124C119.367 8.83506 119.254 9.48527 119.254 10.212Z" fill="#3981F1"/>
<path d="M133.624 2.78176H136.844V4.417C137.503 3.78586 138.21 3.29816 138.963 2.95389C139.717 2.60963 140.564 2.4375 141.506 2.4375C142.561 2.4375 143.531 2.63832 144.416 3.03995C145.32 3.42247 146.092 3.96755 146.732 4.67521C147.373 5.36373 147.872 6.18617 148.23 7.14237C148.588 8.07959 148.766 9.10281 148.766 10.212C148.766 11.3596 148.569 12.4115 148.173 13.3678C147.797 14.305 147.279 15.1178 146.619 15.8064C145.96 16.4757 145.169 17.0017 144.247 17.3843C143.342 17.7667 142.372 17.958 141.337 17.958C140.413 17.958 139.585 17.8146 138.85 17.5277C138.115 17.2407 137.447 16.8391 136.844 16.3228V23.4375H133.624V2.78176ZM140.857 14.917C141.497 14.917 142.09 14.8118 142.636 14.6014C143.201 14.3911 143.691 14.0851 144.105 13.6834C144.519 13.2627 144.84 12.7654 145.066 12.1916C145.31 11.5987 145.433 10.9293 145.433 10.1834C145.433 9.4949 145.329 8.86376 145.123 8.28994C144.915 7.69704 144.613 7.19977 144.218 6.79815C143.841 6.37736 143.389 6.05221 142.862 5.82279C142.334 5.59328 141.751 5.47848 141.11 5.47848C140.131 5.47848 139.265 5.71753 138.511 6.19571C137.777 6.67381 137.221 7.24764 136.844 7.91701V12.4498C137.221 13.2531 137.758 13.8651 138.455 14.2859C139.152 14.7067 139.952 14.917 140.857 14.917Z" fill="#3981F1"/>
<path d="M150.363 10.212C150.363 9.08365 150.552 8.05089 150.928 7.11376C151.305 6.15748 151.842 5.33504 152.539 4.64652C153.236 3.95799 154.064 3.42247 155.024 3.03995C155.985 2.63832 157.05 2.4375 158.217 2.4375C159.366 2.4375 160.421 2.63832 161.382 3.03995C162.361 3.42247 163.199 3.95799 163.896 4.64652C164.593 5.33504 165.129 6.15748 165.506 7.11376C165.902 8.05089 166.1 9.08365 166.1 10.212C166.1 11.3405 165.902 12.3828 165.506 13.3391C165.129 14.2763 164.593 15.0891 163.896 15.7777C163.199 16.4662 162.361 17.0017 161.382 17.3843C160.421 17.7667 159.366 17.958 158.217 17.958C157.069 17.958 156.014 17.7667 155.053 17.3843C154.093 17.0017 153.264 16.4662 152.567 15.7777C151.87 15.0891 151.324 14.2763 150.928 13.3391C150.552 12.3828 150.363 11.3405 150.363 10.212ZM153.697 10.212C153.697 10.8815 153.8 11.5031 154.008 12.0768C154.234 12.6506 154.544 13.1479 154.94 13.5686C155.336 13.9894 155.806 14.3241 156.353 14.5728C156.918 14.8022 157.539 14.917 158.217 14.917C158.895 14.917 159.507 14.8118 160.053 14.6014C160.619 14.3719 161.099 14.0564 161.494 13.6547C161.89 13.234 162.2 12.7367 162.427 12.1629C162.653 11.5891 162.766 10.9388 162.766 10.212C162.766 9.48527 162.644 8.83506 162.398 8.26124C162.172 7.66834 161.852 7.17107 161.438 6.76945C161.024 6.34866 160.544 6.03314 159.997 5.82279C159.451 5.59328 158.858 5.47848 158.217 5.47848C157.577 5.47848 156.974 5.59328 156.41 5.82279C155.863 6.03314 155.383 6.34866 154.969 6.76945C154.573 7.17107 154.262 7.66834 154.036 8.26124C153.81 8.83506 153.697 9.48527 153.697 10.212Z" fill="#3981F1"/>
<path d="M168.101 2.78174H174.372C176.425 2.78174 177.97 3.07819 179.006 3.67109C180.041 4.26398 180.56 5.2872 180.56 6.74073C180.56 7.42927 180.409 8.01263 180.107 8.49073C179.807 8.96892 179.411 9.39924 178.921 9.7817C179.618 10.0495 180.136 10.4989 180.475 11.1301C180.814 11.7421 180.983 12.4498 180.983 13.2531C180.983 14.7449 180.466 15.8637 179.429 16.6096C178.394 17.3364 176.934 17.6998 175.05 17.6998H168.101V2.78174ZM171.322 11.5317V14.7449H174.74C175.7 14.7449 176.425 14.6205 176.915 14.3719C177.405 14.1233 177.65 13.7217 177.65 13.167C177.65 12.5741 177.414 12.1533 176.944 11.9047C176.491 11.656 175.785 11.5317 174.825 11.5317H171.322ZM171.322 5.73667V8.69154H175.107C175.766 8.69154 176.285 8.56729 176.661 8.31862C177.038 8.07003 177.226 7.68748 177.226 7.17105C177.226 6.55908 176.972 6.16699 176.463 5.99488C175.973 5.82277 175.248 5.73667 174.287 5.73667H171.322Z" fill="#3981F1"/>
</svg>
