<svg width="168" height="34" viewBox="0 0 168 34" fill="none" xmlns="http://www.w3.org/2000/svg">
<path d="M0.983398 11.5646C0.983398 7.60352 0.9834 5.62372 1.75027 4.1114C2.42383 2.78079 3.50122 1.69931 4.82503 1.02082C6.32961 0.25 8.30071 0.25 12.24 0.25H22.5577C26.4985 0.25 28.4681 0.25 29.9727 1.02082C31.2964 1.69784 32.3724 2.78079 33.0474 4.1114C33.8143 5.62372 33.8143 7.60352 33.8143 11.5646V21.9354C33.8143 25.8965 33.8143 27.8763 33.0474 29.3886C32.3739 30.7191 31.2964 31.8006 29.9727 32.4791C28.4681 33.25 26.497 33.25 22.5577 33.25H12.24C8.29925 33.25 6.32961 33.25 4.82503 32.4791C3.50122 31.8022 2.42528 30.7191 1.75027 29.3886C0.9834 27.8763 0.983398 25.895 0.983398 21.9354V11.5646Z" fill="#FFB401"/>
<path d="M7.03305 5.71503C8.12649 4.30969 9.77686 3.39966 11.9083 3.39966C14.5399 3.39966 16.1903 4.58079 17.4018 5.72235C18.6133 4.57932 20.2637 3.39966 22.8952 3.39966C25.0268 3.39966 26.6756 4.31116 27.7706 5.71503C28.8435 7.09401 29.3465 8.89649 29.3465 10.6858C29.3465 14.9795 25.9467 18.1536 22.6226 20.5716L18.0972 23.9494C17.2706 24.5663 17.0606 25.7196 17.6161 26.5901C18.2226 27.5427 19.5027 27.7858 20.4138 27.1205L24.6565 24.0271L25.7804 25.5847L21.5379 28.6783C19.7359 29.9928 17.205 29.5121 16.0036 27.6276C14.9058 25.9057 15.3213 23.6225 16.9542 22.4033L21.4883 19.0182L21.4927 19.0138C24.8401 16.5797 27.4294 13.92 27.4294 10.6843C27.4294 9.23208 27.0183 7.87362 26.2602 6.89911C25.5223 5.95098 24.4247 5.3223 22.8937 5.3223C20.5626 5.3223 19.3015 6.50489 18.0826 7.74613C17.9033 7.9293 17.6569 8.03334 17.4003 8.03334C17.1437 8.03334 16.8988 7.93076 16.718 7.74613C15.4992 6.50344 14.2381 5.3223 11.9069 5.3223C10.3761 5.3223 9.27825 5.95243 8.54053 6.89911C7.78242 7.87215 7.37129 9.23208 7.37129 10.6843C7.37129 13.8233 9.86432 16.7746 13.0616 19.0021C13.496 19.3054 13.6039 19.9048 13.3036 20.3415C13.0018 20.7782 12.4055 20.8866 11.971 20.5848C8.65864 18.2767 5.45703 14.8227 5.45703 10.6843C5.45703 8.89649 5.96002 7.09401 7.03305 5.71503Z" fill="white"/>
<path d="M13.8535 9.53594C13.8535 9.45975 13.9148 9.39819 13.9906 9.39819H15.6322C15.708 9.39819 15.7692 9.45975 15.7692 9.53594V12.1122C15.7692 12.1884 15.8305 12.2499 15.9063 12.2499H18.8965C18.9723 12.2499 19.0335 12.1884 19.0335 12.1122V9.53594C19.0335 9.45975 19.0948 9.39819 19.1706 9.39819H20.8122C20.888 9.39819 20.9492 9.45975 20.9492 9.53594V16.8895C20.9492 16.9657 20.888 17.0272 20.8122 17.0272H19.1706C19.0948 17.0272 19.0335 16.9657 19.0335 16.8895V14.3132C19.0335 14.237 18.9723 14.1755 18.8965 14.1755H15.9063C15.8305 14.1755 15.7692 14.237 15.7692 14.3132V16.8895C15.7692 16.9657 15.708 17.0272 15.6322 17.0272H13.9906C13.9148 17.0272 13.8535 16.9657 13.8535 16.8895V9.53594Z" fill="white"/>
<path d="M27.451 21.9769C26.8329 21.9769 26.3328 22.4809 26.3328 23.1008C26.3328 23.7221 26.8342 24.2248 27.451 24.2248C28.0678 24.2248 28.5692 23.7208 28.5692 23.1008C28.5692 22.4796 28.0691 21.9769 27.451 21.9769ZM24.417 23.1008C24.417 21.4171 25.776 20.0513 27.451 20.0513C29.1263 20.0513 30.485 21.4171 30.485 23.1008C30.485 24.786 29.1263 26.1505 27.451 26.1505C25.776 26.1505 24.417 24.786 24.417 23.1008Z" fill="white"/>
<path d="M42.1895 22.8279V8.8606H43.7575V15.0657H51.7783V8.8606H53.3463V22.8279H51.7783V16.5406H43.7575V22.8279H42.1895Z" fill="black"/>
<path d="M60.0769 23.0476C59.0316 23.0476 58.1307 22.7629 57.378 22.1898C56.6233 21.6186 56.2451 20.8201 56.2451 19.7942C56.2451 18.7167 56.6424 17.8856 57.4369 17.2991C58.2314 16.7145 59.2958 16.4203 60.6337 16.4203C61.6924 16.4203 62.7378 16.5674 63.7717 16.8597V16.5407C63.7717 15.637 63.5075 14.9436 62.9772 14.4659C62.4469 13.9883 61.7001 13.7476 60.7327 13.7476C59.7252 13.7476 58.6875 13.9941 57.6155 14.4869L57.1593 13.2299C58.429 12.6453 59.674 12.3511 60.8922 12.3511C62.3482 12.3511 63.4524 12.7313 64.2088 13.4897C64.9234 14.208 65.2808 15.2187 65.2808 16.5235V22.8298H63.7717V21.2939C62.8575 22.463 61.6259 23.0476 60.0769 23.0476ZM60.3752 21.8116C61.3293 21.8116 62.1352 21.5518 62.7986 21.034C63.46 20.5144 63.7908 19.8496 63.7908 19.0395V18.0805C62.7853 17.7882 61.7857 17.6411 60.7935 17.6411C59.8526 17.6411 59.1189 17.8302 58.5906 18.2104C58.0602 18.5887 57.7961 19.1045 57.7961 19.7579C57.7961 20.3845 58.0451 20.8831 58.5411 21.2537C59.0353 21.6244 59.6473 21.8116 60.3752 21.8116Z" fill="black"/>
<path d="M68.4756 22.8279V8.8606H80.0695V22.8279H77.0114V11.6326H71.5337V22.8279H68.4756Z" fill="black"/>
<path d="M92.4292 21.4504C91.323 22.5278 89.9507 23.0666 88.3085 23.0666C86.6663 23.0666 85.2997 22.5298 84.2088 21.4599C83.116 20.3901 82.5703 19.0681 82.5703 17.4996C82.5703 15.9426 83.1236 14.6263 84.2278 13.5469C85.334 12.4675 86.7064 11.9307 88.3483 11.9307C89.9905 11.9307 91.3572 12.4656 92.448 13.5373C93.5391 14.6072 94.0865 15.9273 94.0865 17.4977C94.0865 19.0566 93.5334 20.3729 92.4292 21.4504ZM88.3483 20.4531C89.1829 20.4531 89.85 20.1704 90.3537 19.6049C90.8553 19.0394 91.1081 18.3383 91.1081 17.4996C91.1081 16.6877 90.8479 15.9923 90.3232 15.4134C89.8006 14.8345 89.1295 14.546 88.3085 14.546C87.4742 14.546 86.8051 14.8288 86.3034 15.3943C85.7996 15.9598 85.5487 16.6609 85.5487 17.4996C85.5487 18.3115 85.8092 19.0069 86.3338 19.5858C86.8565 20.1628 87.5273 20.4531 88.3483 20.4531Z" fill="black"/>
<path d="M105.94 12.1313V22.828H102.922V14.7257H99.2878V22.828H96.2715V12.1313H105.94Z" fill="black"/>
<path d="M108.639 26.022V12.1313H111.655V13.6673C112.503 12.5095 113.607 11.9307 114.972 11.9307C116.296 11.9307 117.433 12.4293 118.387 13.4265C119.341 14.4238 119.816 15.7802 119.816 17.4977C119.816 19.1999 119.343 20.5487 118.397 21.5383C117.45 22.5278 116.308 23.0245 114.972 23.0245C113.649 23.0245 112.542 22.4935 111.655 21.4294V26.0183L108.639 26.022ZM112.362 19.6259C112.858 20.178 113.47 20.4531 114.198 20.4531C114.926 20.4531 115.542 20.178 116.044 19.6259C116.547 19.0738 116.798 18.3517 116.798 17.4614C116.798 16.5979 116.547 15.8891 116.044 15.337C115.54 14.7849 114.926 14.5079 114.198 14.5079C113.47 14.5079 112.858 14.7829 112.362 15.337C111.866 15.8891 111.617 16.6113 111.617 17.5015C111.617 18.365 111.866 19.0738 112.362 19.6259Z" fill="black"/>
<path d="M125.058 23.0283C124.013 23.0283 123.142 22.7361 122.447 22.1495C121.753 21.5649 121.403 20.753 121.403 19.7156C121.403 18.5846 121.791 17.7326 122.564 17.1614C123.338 16.5901 124.382 16.3036 125.693 16.3036C126.579 16.3036 127.447 16.4507 128.293 16.743V16.5634C128.293 15.2605 127.533 14.6071 126.01 14.6071C125.096 14.6071 124.117 14.8 123.072 15.186L122.318 12.8705C123.616 12.2993 124.992 12.0127 126.448 12.0127C128.05 12.0127 129.247 12.412 130.042 13.2106C130.81 13.9824 131.193 15.1191 131.193 16.6226V22.8296H128.276V21.6719C127.466 22.5755 126.394 23.0283 125.058 23.0283ZM125.971 20.9326C126.672 20.9326 127.24 20.7568 127.677 20.4034C128.114 20.0518 128.333 19.6029 128.333 19.0565V18.5178C127.765 18.2522 127.122 18.1204 126.406 18.1204C125.744 18.1204 125.231 18.2503 124.868 18.5082C124.503 18.768 124.321 19.1444 124.321 19.6354C124.321 20.0346 124.473 20.3499 124.777 20.5829C125.085 20.8179 125.482 20.9326 125.971 20.9326Z" fill="black"/>
<path d="M133.794 12.1313H139.631C140.716 12.1313 141.579 12.3721 142.221 12.8497C142.864 13.3273 143.185 13.9807 143.185 14.806C143.185 15.9236 142.623 16.7279 141.497 17.2208C142.887 17.6468 143.582 18.5447 143.582 19.9145C143.582 20.8181 143.229 21.5307 142.52 22.0504C141.813 22.57 140.842 22.828 139.612 22.828H133.794V12.1313ZM138.895 16.4222C139.306 16.4222 139.621 16.3229 139.838 16.1223C140.057 15.9236 140.167 15.6638 140.167 15.3447C140.167 15.0658 140.062 14.8327 139.857 14.6474C139.652 14.4621 139.344 14.3685 138.933 14.3685H136.77V16.4222H138.895ZM136.772 20.4532H139.154C140.068 20.4532 140.524 20.0941 140.524 19.3757C140.524 18.6842 140.041 18.3384 139.074 18.3384H136.77L136.772 20.4532Z" fill="black"/>
<path d="M145.705 22.828V12.1313H148.723V16.5215L152.536 12.1313H156.01L152.099 16.5215L156.506 22.828H152.931L150.094 18.7568L148.723 20.2545V22.828H145.705Z" fill="black"/>
<path d="M160.376 26.0814C159.422 26.0814 158.53 25.835 157.696 25.342L158.709 23.147C159.173 23.426 159.603 23.5655 160 23.5655C160.477 23.5655 160.826 23.3323 161.051 22.8681L156.881 12.1313H160.078L162.499 19.4159L164.822 12.1313H167.958L163.868 23.0878C163.457 24.192 162.995 24.9675 162.478 25.4128C161.965 25.8579 161.264 26.0814 160.376 26.0814Z" fill="black"/>
</svg>
