<svg width="81" height="80" viewBox="0 0 81 80" fill="none" xmlns="http://www.w3.org/2000/svg">
<path d="M31.9855 20.7922H48.5844C54.3135 20.7922 56.9768 26.661 52.6722 29.7876L27.9287 47.7015C23.6241 50.8025 26.2874 56.6712 31.9855 56.6712H48.5844" stroke="#292D32" stroke-width="2" stroke-linecap="round" stroke-linejoin="round" stroke-dasharray="4 4"/>
<path d="M61.2996 58.3753C62.9509 58.3753 64.2896 57.0366 64.2896 55.3853C64.2896 53.7339 62.9509 52.3953 61.2996 52.3953C59.6482 52.3953 58.3096 53.7339 58.3096 55.3853C58.3096 57.0366 59.6482 58.3753 61.2996 58.3753Z" stroke="#303030" stroke-width="2"/>
<path d="M53.2688 53.6411C55.1567 45.3419 67.4521 45.3515 69.3304 53.6507C70.4325 58.519 67.4042 62.6398 64.7496 65.189C62.8234 67.0482 59.7759 67.0482 57.84 65.189C55.195 62.6398 52.1667 58.5094 53.2688 53.6411Z" stroke="#303030" stroke-width="2"/>
<path fill-rule="evenodd" clip-rule="evenodd" d="M28.3304 17.6507C26.4521 9.35151 14.1567 9.34193 12.2688 17.6411C11.1667 22.5094 14.195 26.6398 16.84 29.189C18.7759 31.0482 21.8234 31.0482 23.7496 29.189C26.4042 26.6398 29.4325 22.519 28.3304 17.6507ZM23.2895 19.3852C23.2895 21.0365 21.9509 22.3752 20.2995 22.3752C18.6482 22.3752 17.3095 21.0365 17.3095 19.3852C17.3095 17.7339 18.6482 16.3952 20.2995 16.3952C21.9509 16.3952 23.2895 17.7339 23.2895 19.3852Z" fill="#AD4E2C"/>
</svg>
