<svg width="81" height="80" viewBox="0 0 81 80" fill="none" xmlns="http://www.w3.org/2000/svg">
<path d="M23.1595 21.4047C22.0881 18.9631 21.3478 13.0116 26.9576 8.7384C28.0127 11.3926 28.7304 17.6417 23.1595 21.4047Z" fill="#AD4E2C"/>
<path d="M57.2565 21.4047C58.3279 18.9631 59.0682 13.0116 53.4585 8.7384C52.4033 11.3926 51.6857 17.6417 57.2565 21.4047Z" fill="#AD4E2C"/>
<path d="M18.5231 28.7954C16.1523 27.2689 11.9796 22.4627 14.2549 15.4504C16.7381 17.1734 21.0682 22.2545 18.5231 28.7954Z" fill="#AD4E2C"/>
<path d="M61.2406 28.7957C63.6114 27.2691 67.7841 22.463 65.5087 15.4507C63.0255 17.1736 58.6954 22.2547 61.2406 28.7957Z" fill="#AD4E2C"/>
<path d="M18.1199 36.5288C15.3753 37.1755 9.01923 36.8424 5.55159 30.3367C8.51556 29.7454 15.1788 30.1561 18.1199 36.5288Z" fill="#AD4E2C"/>
<path d="M62.0803 36.5288C64.8249 37.1755 71.181 36.8424 74.6486 30.3367C71.6846 29.7454 65.0214 30.1561 62.0803 36.5288Z" fill="#AD4E2C"/>
<path d="M21.077 45.5291C18.9055 47.3278 13.0632 49.8534 7.06613 45.5656C9.45881 43.7191 15.6107 41.1266 21.077 45.5291Z" fill="#AD4E2C"/>
<path d="M59.8468 45.5291C62.0184 47.3278 67.8607 49.8534 73.8577 45.5656C71.465 43.7191 65.3131 41.1266 59.8468 45.5291Z" fill="#AD4E2C"/>
<path d="M26.8599 52.1461C25.3996 54.5583 20.7108 58.8625 13.6382 56.7821C15.2918 54.2521 20.251 49.783 26.8599 52.1461Z" fill="#AD4E2C"/>
<path d="M53.1869 52.6682C54.6473 55.0804 59.3361 59.3846 66.4086 57.3042C64.7551 54.7742 59.7959 50.3051 53.1869 52.6682Z" fill="#AD4E2C"/>
<path d="M35.9358 56.427C35.5253 59.2167 32.8729 65.0025 25.5471 65.828C26.0899 62.8548 28.9277 56.8121 35.9358 56.427Z" fill="#AD4E2C"/>
<path d="M43.0749 56.427C43.4854 59.2167 46.1378 65.0025 53.4637 65.828C52.9208 62.8548 50.083 56.8121 43.0749 56.427Z" fill="#AD4E2C"/>
<path d="M49.4503 47.6421V44.3265C49.4503 39.1623 45.2639 34.9758 40.0997 34.9758V34.9758C34.9355 34.9758 30.749 39.1623 30.749 44.3265V47.6421" stroke="black" stroke-width="2" stroke-linecap="round"/>
<rect x="33.7666" y="18.0873" width="12.6663" height="12.6663" rx="6.33316" stroke="black" stroke-width="2"/>
<path fill-rule="evenodd" clip-rule="evenodd" d="M23.51 21.0609C19.8555 24.6245 18.8968 30.7421 18.8968 36.0307C18.8968 46.9153 28.3858 55.8467 40.2288 55.8467C52.0717 55.8467 61.5607 46.9153 61.5607 36.0307C61.5607 30.7421 60.6021 24.6245 56.9475 21.0609C60.9251 24.9395 63.3823 30.2126 63.3823 36.0307C63.3823 48.0403 52.9545 57.6683 40.2288 57.6683C27.503 57.6683 17.0752 48.0403 17.0752 36.0307C17.0752 30.2126 19.5324 24.9395 23.51 21.0609Z" fill="#AD4E2C"/>
</svg>
