<svg width="176" height="89" viewBox="0 0 176 89" fill="none" xmlns="http://www.w3.org/2000/svg">
<g filter="url(#filter0_dddddd_17_2968)">
<path fill-rule="evenodd" clip-rule="evenodd" d="M40 8C24.536 8 12 20.536 12 36C12 51.464 24.536 64 40 64H79.4316C79.4675 64.1909 79.5594 64.3733 79.7071 64.5211L87.1068 71.9208C87.4974 72.3113 88.1305 72.3113 88.521 71.9208L95.9208 64.5211C96.0685 64.3733 96.1603 64.1909 96.1963 64H136C151.464 64 164 51.464 164 36C164 20.536 151.464 8 136 8H40Z" fill="white"/>
</g>
<circle cx="42.1579" cy="36.0273" r="15.2556" fill="white" stroke="#AD4E2C"/>
<path d="M38.9874 51.0144C38.6651 48.7225 38.9014 43.3759 42.4253 40.3248C46.83 36.5109 48.6564 35.2754 49.9994 31.3541C51.0737 28.217 51.0558 24.926 50.9125 23.6726" stroke="#AD4E2C" stroke-linecap="round"/>
<path d="M30.0117 45.414C33.7179 44.9252 36.8741 44.5953 38.8812 41.0234C42.0504 35.3831 41.191 30.7635 42.695 26.8421C43.8983 23.7051 45.6674 21.9181 46.4015 21.4167" stroke="#AD4E2C" stroke-linecap="round"/>
<path d="M45.0557 51.0145C43.856 49.779 41.9831 46.4164 44.0888 42.8496C46.7209 38.3911 50.5348 39.1431 53.4892 36.2424C55.8528 33.9218 56.4506 31.7958 56.5222 31.2407" stroke="#AD4E2C" stroke-linecap="round"/>
<path d="M37.375 21.5239C39.0044 22.3476 43.7581 25.1943 45.6489 29.4487C48.0124 34.7667 47.2577 35.6804 50.3733 38.205C52.8657 40.2248 55.7043 40.675 56.5638 41.0152" stroke="#AD4E2C" stroke-linecap="round"/>
<path d="M36.2478 50.1786C35.9613 49.8026 37.3321 48.3124 36.7305 43.4994C35.809 36.1278 30.4178 34.4579 27.0781 33.9285" stroke="#AD4E2C" stroke-linecap="round"/>
<path d="M33.9386 48.9195C33.5446 47.8989 32.9932 44.8263 33.9386 40.7008C35.1203 35.544 35.9798 34.3622 35.8187 30.3335C35.6897 27.1105 33.9744 24.6932 33.1328 23.8875" stroke="#AD4E2C" stroke-linecap="round"/>
<path d="M29.8477 27.0051C30.9757 27.8467 31.6804 31.5666 38.9705 32.5847C45.0075 33.4279 49.0709 39.1418 47.8083 50.1382" stroke="#AD4E2C" stroke-linecap="round"/>
<path d="M40.6773 48.6508C41.1715 49.1665 42.3873 49.0805 42.9334 48.9731C42.7812 48.4628 42.3587 47.3186 41.886 46.8244C41.4133 46.3302 40.364 46.1709 39.8984 46.153C39.9522 46.7707 40.1831 48.1351 40.6773 48.6508Z" fill="#AD4E2C"/>
<path d="M41.1876 45.3741C41.338 45.8683 42.0561 46.2246 42.3963 46.341C42.4679 46.144 42.5682 45.5782 42.3963 44.8906C42.2244 44.2031 41.7159 43.87 41.4831 43.7894C41.3219 44.1117 41.0372 44.8799 41.1876 45.3741Z" fill="#AD4E2C"/>
<path d="M53.7888 38.7936C53.7673 39.4812 54.2812 39.9395 54.5409 40.0828C54.7378 39.8679 55.1156 39.3093 55.0512 38.7936C54.9867 38.2779 54.3618 37.7909 54.0574 37.6118C53.9768 37.7192 53.8103 38.106 53.7888 38.7936Z" fill="#AD4E2C"/>
<path d="M51.2693 42.1785C52.1073 42.114 52.7644 41.2563 52.9882 40.8355C52.5853 40.5849 51.597 40.0889 50.8664 40.1104C50.1359 40.1319 49.3802 41.2832 49.0938 41.8562C49.4698 41.9905 50.4313 42.2429 51.2693 42.1785Z" fill="#AD4E2C"/>
<path d="M54.1163 42.1785C54.2452 41.6198 53.8656 41.2295 53.6597 41.1041C53.5433 41.1758 53.2837 41.4264 53.1762 41.8562C53.0688 42.2859 53.3463 42.8589 53.4985 43.0917C53.6507 43.02 53.9873 42.7371 54.1163 42.1785Z" fill="#AD4E2C"/>
<path d="M58.7631 39.5999C58.14 39.8577 57.9305 40.71 57.9036 41.104C58.1095 41.104 58.6449 41.0771 59.1391 40.9697C59.6333 40.8622 59.918 40.0117 59.9986 39.5999C59.8464 39.4925 59.3862 39.342 58.7631 39.5999Z" fill="#AD4E2C"/>
<path d="M57.7156 41.7217C56.8776 41.6357 56.0593 42.5095 55.7549 42.9572C56.0325 43.2347 56.8132 43.8005 57.7156 43.8435C58.618 43.8865 59.4345 42.7871 59.73 42.232C59.4077 42.0977 58.5536 41.8076 57.7156 41.7217Z" fill="#AD4E2C"/>
<path d="M50.5905 32.965C49.903 33.0294 49.552 33.7618 49.4625 34.1199C49.6371 34.196 50.1366 34.3321 50.7383 34.2676C51.3399 34.2032 51.7499 33.5782 51.8798 33.2738C51.7365 33.144 51.2781 32.9005 50.5905 32.965Z" fill="#AD4E2C"/>
<path d="M49.8922 34.8854C49.1187 34.8316 48.227 35.4628 47.8779 35.7851C48.1196 36.0761 48.8313 36.6983 49.7445 36.8595C50.6577 37.0206 51.5485 36.094 51.8798 35.6105C51.5395 35.3912 50.6658 34.9391 49.8922 34.8854Z" fill="#AD4E2C"/>
<path d="M48.4955 27.9766C48.6137 28.8038 49.4758 29.6284 49.8921 29.9373C50.1831 29.4046 50.714 28.1727 50.5099 27.5066C50.3058 26.8405 49.3057 26.1189 48.8312 25.8413C48.6701 26.2084 48.3773 27.1494 48.4955 27.9766Z" fill="#AD4E2C"/>
<path d="M48.6566 29.7761C49.2798 29.9373 49.5698 30.5684 49.637 30.8639C49.4892 30.9623 49.0541 31.1271 48.4955 30.9982C47.9368 30.8692 47.448 30.3177 47.2734 30.0581C47.4749 29.897 48.0335 29.615 48.6566 29.7761Z" fill="#AD4E2C"/>
<path d="M52.336 21.7118C51.8848 21.9911 51.7183 22.6877 51.6914 23.001C51.9063 23.001 52.4757 22.958 53.0343 22.7861C53.593 22.6142 53.7326 21.8729 53.7326 21.5238C53.4551 21.4701 52.7872 21.4325 52.336 21.7118Z" fill="#AD4E2C"/>
<path d="M50.6976 21.3089C50.5687 20.9866 50.0888 20.6912 49.865 20.5837C49.7576 20.8255 49.6072 21.3895 49.865 21.7118C50.1229 22.0341 50.5275 22.3295 50.6976 22.437C50.7514 22.1952 50.8266 21.6312 50.6976 21.3089Z" fill="#AD4E2C"/>
<path d="M44.4401 25.3647C43.9889 25.4937 43.7687 26.1705 43.7149 26.4928C43.8671 26.5555 44.279 26.6432 44.7087 26.4928C45.1384 26.3424 45.4249 25.7676 45.5145 25.499C45.3444 25.4006 44.8913 25.2358 44.4401 25.3647Z" fill="#AD4E2C"/>
<path d="M35.4157 21.1211C35.9529 21.3575 36.499 21.1122 36.7049 20.96C36.7049 20.8078 36.5814 20.4336 36.0872 20.1542C35.593 19.8749 35.0397 20.0378 34.8248 20.1542C34.798 20.3781 34.8785 20.8848 35.4157 21.1211Z" fill="#AD4E2C"/>
<path d="M42.7759 22.5179C42.5181 23.1411 42.6685 23.9056 42.7759 24.21C43.0535 24.1205 43.6891 23.791 44.0114 23.1894C44.3337 22.5878 43.8771 21.7749 43.6085 21.4436C43.4384 21.5421 43.0338 21.8948 42.7759 22.5179Z" fill="#AD4E2C"/>
<path d="M41.9165 23.1894C41.8305 22.7382 41.2898 22.3389 41.0301 22.1956C40.8958 22.4016 40.681 22.9262 40.8958 23.3774C41.1107 23.8286 41.6658 24.1205 41.9165 24.21C41.9523 24.0578 42.0024 23.6406 41.9165 23.1894Z" fill="#AD4E2C"/>
<path d="M39.3632 28.2654C39.707 28.9315 40.724 29.4203 41.1896 29.5814C41.297 29.0711 41.4474 27.8947 41.1896 27.2716C40.9317 26.6485 39.6139 26.2778 38.9872 26.1704C38.9693 26.5912 39.0194 27.5993 39.3632 28.2654Z" fill="#AD4E2C"/>
<path d="M38.3157 27.4328C37.9934 27.003 37.2503 26.8777 36.9191 26.8687C36.9191 27.2089 37.0104 27.9646 37.3757 28.2654C37.741 28.5662 38.6022 28.6235 38.9872 28.6145C38.8977 28.3997 38.638 27.8625 38.3157 27.4328Z" fill="#AD4E2C"/>
<path d="M36.4625 39.3847C36.0972 40.1153 36.3998 41.229 36.5968 41.6946C37.0444 41.5066 38.0149 40.9533 38.3157 40.2442C38.6165 39.5351 38.0292 38.3731 37.698 37.8807C37.4384 38.0776 36.8278 38.6542 36.4625 39.3847Z" fill="#AD4E2C"/>
<path d="M31.9234 39.6265C32.4821 39.8198 33.0873 39.707 33.3201 39.6265C33.2216 39.3668 32.9011 38.7777 32.4069 38.4984C31.9127 38.2191 31.2162 38.6148 30.9297 38.8476C31.0282 39.0266 31.3648 39.4331 31.9234 39.6265Z" fill="#AD4E2C"/>
<path d="M41.9951 37.1556C41.458 37.2845 41.0014 37.8718 40.8402 38.1493C41.0819 38.2657 41.6997 38.4663 42.2369 38.3373C42.774 38.2084 43.0337 37.4958 43.0963 37.1556C42.9531 37.1018 42.5323 37.0266 41.9951 37.1556Z" fill="#AD4E2C"/>
<path d="M39.0676 35.9738C39.2395 36.468 39.748 36.7169 39.9808 36.7795C40.0524 36.6005 40.1526 36.1296 39.9808 35.6784C39.8089 35.2271 39.3003 34.8995 39.0676 34.792C38.9959 34.98 38.8957 35.4796 39.0676 35.9738Z" fill="#AD4E2C"/>
<path d="M42.2369 34.792C41.8286 35.2003 41.5475 36.0723 41.4579 36.4572C41.7713 36.4572 42.4302 36.4949 43.0963 36.1081C43.7624 35.7213 43.7409 34.7652 43.6066 34.3354C43.3022 34.3623 42.6451 34.3838 42.2369 34.792Z" fill="#AD4E2C"/>
<path d="M31.628 33.0905C32.0792 33.6921 33.0873 34.0215 33.535 34.1111C33.6424 33.6008 33.7283 32.419 33.2127 31.7744C32.697 31.1298 31.4758 30.9866 30.9297 30.9955C30.9745 31.4431 31.1768 32.4888 31.628 33.0905Z" fill="#AD4E2C"/>
<path d="M32.8624 35.8032C33.2707 35.6743 33.5876 35.1228 33.695 34.8632C33.4981 34.7558 32.986 34.5785 32.5133 34.7289C32.0406 34.8793 31.797 35.2929 31.7344 35.4809C31.9403 35.6421 32.4542 35.9322 32.8624 35.8032Z" fill="#AD4E2C"/>
<path d="M25.1012 28.8027C25.445 29.4903 26.5157 30.0382 27.0081 30.2262C27.1693 29.7517 27.3627 28.604 26.847 27.8089C26.3313 27.0139 25.2713 26.8152 24.8057 26.8152C24.761 27.1912 24.7574 28.1151 25.1012 28.8027Z" fill="#AD4E2C"/>
<path d="M25.1012 31.5423C25.6813 31.5423 26.274 31.2737 26.4978 31.1394C26.3725 30.9066 25.9714 30.3981 25.3698 30.2262C24.7681 30.0543 24.2059 30.6738 24 31.0051C24.1253 31.1842 24.521 31.5423 25.1012 31.5423Z" fill="#AD4E2C"/>
<path d="M34.9045 51.9278C35.6136 51.9708 36.0236 51.4264 36.14 51.1489C35.8446 50.943 35.1409 50.5526 34.6896 50.6386C34.2384 50.7245 33.7138 51.1399 33.5079 51.3369C33.678 51.516 34.1954 51.8848 34.9045 51.9278Z" fill="#AD4E2C"/>
<path d="M71.6078 29.848C72.4238 29.848 76.3758 29.848 76.4718 33.272C76.4718 36.92 72.6318 36.92 71.6558 36.92C70.6318 36.92 69.7198 36.92 69.7198 36.92V38.296C69.7198 40.136 70.2318 40.696 70.4238 40.904V41.016H66.6478V40.904C66.8398 40.76 67.3518 40.136 67.3518 38.296V32.568C67.3518 30.712 66.8398 30.152 66.6478 29.944V29.848C66.6478 29.848 70.7918 29.848 71.6078 29.848ZM71.6078 35.736C71.6078 35.736 74.0718 35.832 74.0718 33.272C74.0718 30.968 71.6078 31.032 71.6078 31.032H69.6558V35.736H71.6078ZM85.9381 31.032H82.9621V34.712H87.0101V35.896H82.9621V39.784H85.9381C87.7781 39.784 88.3381 39.272 88.5461 39.064H88.6581V41.016H79.9541V40.904C80.1461 40.76 80.6581 40.136 80.6581 38.296V32.568C80.6581 30.712 80.1461 30.152 79.9541 29.944V29.848H88.6581V31.736H88.5461C88.3381 31.544 87.7781 31.032 85.9381 31.032ZM102.2 43.144C103.48 43.144 104.344 42.024 104.296 41.96L105.112 42.936C103.992 44.264 102.808 44.328 102.152 44.328C99.5444 44.328 98.2644 42.536 98.0564 41.304H98.0084C97.8484 41.304 97.6884 41.304 97.5444 41.304C94.1044 41.096 92.1204 39.048 92.1204 35.416C92.1204 31.928 94.0564 29.528 98.0084 29.528H100.456C104.408 29.528 106.344 31.88 106.344 35.416C106.344 39.048 104.296 41.144 100.92 41.304C100.824 41.304 100.664 41.304 100.504 41.304C100.664 42.728 101.528 43.144 102.2 43.144ZM98.0084 40.12V30.648C95.3364 30.648 94.7284 32.136 94.7284 35.416C94.7284 38.696 95.3364 40.12 98.0084 40.12ZM100.504 30.648V40.12C103.176 40.12 103.784 38.696 103.784 35.416C103.784 32.088 103.176 30.648 100.504 30.648ZM115.027 29.848C115.843 29.848 119.795 29.848 119.891 33.272C119.891 36.92 116.051 36.92 115.075 36.92C114.051 36.92 113.139 36.92 113.139 36.92V38.296C113.139 40.136 113.651 40.696 113.843 40.904V41.016H110.067V40.904C110.259 40.76 110.771 40.136 110.771 38.296V32.568C110.771 30.712 110.259 30.152 110.067 29.944V29.848C110.067 29.848 114.211 29.848 115.027 29.848ZM115.027 35.736C115.027 35.736 117.491 35.832 117.491 33.272C117.491 30.968 115.027 31.032 115.027 31.032H113.075V35.736H115.027ZM129.357 31.032H126.381V34.712H130.429V35.896H126.381V39.784H129.357C131.197 39.784 131.757 39.272 131.965 39.064H132.077V41.016H123.373V40.904C123.565 40.76 124.077 40.136 124.077 38.296V32.568C124.077 30.712 123.565 30.152 123.373 29.944V29.848H132.077V31.736H131.965C131.757 31.544 131.197 31.032 129.357 31.032ZM151.374 29.896C151.166 30.104 150.654 30.664 150.606 32.568V38.296C150.606 40.136 151.118 40.696 151.326 40.904V41.016H135.71V40.904C135.902 40.76 136.414 40.136 136.414 38.296V32.568C136.414 30.712 135.902 30.152 135.71 29.944V29.848H139.486V29.896C139.294 30.104 138.782 30.664 138.782 32.456V39.832H143.134V32.568C143.134 30.712 142.622 30.152 142.414 29.944V29.848H144.67V29.944C144.462 30.104 143.95 30.712 143.95 32.568V39.88H148.302V32.504C148.302 30.712 147.79 30.152 147.582 29.944V29.848H151.374V29.896Z" fill="black"/>
<defs>
<filter id="filter0_dddddd_17_2968" x="0" y="0" width="176" height="88.2136" filterUnits="userSpaceOnUse" color-interpolation-filters="sRGB">
<feFlood flood-opacity="0" result="BackgroundImageFix"/>
<feColorMatrix in="SourceAlpha" type="matrix" values="0 0 0 0 0 0 0 0 0 0 0 0 0 0 0 0 0 0 127 0" result="hardAlpha"/>
<feOffset dy="1.7"/>
<feGaussianBlur stdDeviation="2.5"/>
<feColorMatrix type="matrix" values="0 0 0 0 0 0 0 0 0 0 0 0 0 0 0 0 0 0 0.036 0"/>
<feBlend mode="normal" in2="BackgroundImageFix" result="effect1_dropShadow_17_2968"/>
<feColorMatrix in="SourceAlpha" type="matrix" values="0 0 0 0 0 0 0 0 0 0 0 0 0 0 0 0 0 0 127 0" result="hardAlpha"/>
<feOffset dy="0.9"/>
<feGaussianBlur stdDeviation="1.35"/>
<feColorMatrix type="matrix" values="0 0 0 0 0 0 0 0 0 0 0 0 0 0 0 0 0 0 0.03 0"/>
<feBlend mode="normal" in2="effect1_dropShadow_17_2968" result="effect2_dropShadow_17_2968"/>
<feColorMatrix in="SourceAlpha" type="matrix" values="0 0 0 0 0 0 0 0 0 0 0 0 0 0 0 0 0 0 127 0" result="hardAlpha"/>
<feOffset dy="0.5"/>
<feGaussianBlur stdDeviation="0.75"/>
<feColorMatrix type="matrix" values="0 0 0 0 0 0 0 0 0 0 0 0 0 0 0 0 0 0 0.025 0"/>
<feBlend mode="normal" in2="effect2_dropShadow_17_2968" result="effect3_dropShadow_17_2968"/>
<feColorMatrix in="SourceAlpha" type="matrix" values="0 0 0 0 0 0 0 0 0 0 0 0 0 0 0 0 0 0 127 0" result="hardAlpha"/>
<feOffset dy="0.3"/>
<feGaussianBlur stdDeviation="0.4"/>
<feColorMatrix type="matrix" values="0 0 0 0 0 0 0 0 0 0 0 0 0 0 0 0 0 0 0.02 0"/>
<feBlend mode="normal" in2="effect3_dropShadow_17_2968" result="effect4_dropShadow_17_2968"/>
<feColorMatrix in="SourceAlpha" type="matrix" values="0 0 0 0 0 0 0 0 0 0 0 0 0 0 0 0 0 0 127 0" result="hardAlpha"/>
<feOffset dy="0.1"/>
<feGaussianBlur stdDeviation="0.15"/>
<feColorMatrix type="matrix" values="0 0 0 0 0 0 0 0 0 0 0 0 0 0 0 0 0 0 0.014 0"/>
<feBlend mode="normal" in2="effect4_dropShadow_17_2968" result="effect5_dropShadow_17_2968"/>
<feColorMatrix in="SourceAlpha" type="matrix" values="0 0 0 0 0 0 0 0 0 0 0 0 0 0 0 0 0 0 127 0" result="hardAlpha"/>
<feOffset dy="4"/>
<feGaussianBlur stdDeviation="6"/>
<feColorMatrix type="matrix" values="0 0 0 0 0 0 0 0 0 0 0 0 0 0 0 0 0 0 0.05 0"/>
<feBlend mode="normal" in2="effect5_dropShadow_17_2968" result="effect6_dropShadow_17_2968"/>
<feBlend mode="normal" in="SourceGraphic" in2="effect6_dropShadow_17_2968" result="shape"/>
</filter>
</defs>
</svg>
