<svg width="44" height="35" viewBox="0 0 44 35" fill="none" xmlns="http://www.w3.org/2000/svg">
<path d="M9.25953 16.6797C14.6148 16.6797 18.4596 21.0547 18.4596 25.8398C18.4596 30.625 14.0655 35 9.25953 35C4.45354 35 0.471433 31.4453 0.0594914 25.8398C-0.352451 19.2774 1.43263 14.4922 3.62966 10.5274C6.23862 5.74219 9.25953 2.1875 12.8297 0L16.2626 2.59766C14.0655 4.375 12.4178 6.56249 10.6327 10.1172C9.25953 12.3047 8.43565 14.4922 8.02371 16.6797C8.43565 16.6797 8.84759 16.6797 9.25953 16.6797ZM34.8 16.6797C40.0179 16.6797 44 21.0547 44 25.8398C44 30.625 39.6059 35 34.8 35C29.994 35 26.0119 31.4453 25.5999 25.8398C25.0507 19.2774 26.8357 14.4922 29.0328 10.5274C31.6417 5.74219 34.8 2.1875 38.2328 0L41.803 2.59766C39.6059 4.375 37.8209 6.56249 36.0358 10.1172C34.8 12.3047 33.8388 14.4922 33.4268 16.6797C33.8388 16.6797 34.388 16.6797 34.8 16.6797Z" fill="#AD4E2C"/>
</svg>
