<svg width="89" height="27" viewBox="0 0 89 27" fill="none" xmlns="http://www.w3.org/2000/svg">
<path d="M84.5583 23.2246C86.2871 23.2246 87.5117 22.9112 88.4241 22.2362V19.1744C87.4876 19.8253 86.3591 20.2352 84.7744 20.2352C82.1091 20.2352 81.0046 18.1618 81.0046 14.8831C81.0046 11.4355 82.3492 9.67562 84.7984 9.67562C86.2391 9.67562 87.6557 10.1819 88.4001 10.6641V7.48174C87.6077 7.04779 86.2391 6.73438 84.3662 6.73438C79.588 6.73438 77.1148 10.1819 77.1148 15.0036C77.1388 20.2834 79.5639 23.2246 84.5583 23.2246ZM61.1954 21.8263V18.7646C60.0429 19.5601 58.074 20.2593 56.2731 20.2593C53.5358 20.2593 52.5034 18.9574 52.3353 16.3055H61.3635V14.3286C61.3635 8.80771 58.9384 6.73438 55.2166 6.73438C50.6545 6.73438 48.4935 10.2301 48.4935 15.0277C48.4935 20.5486 51.2068 23.2246 55.961 23.2246C58.3381 23.2246 60.0909 22.5737 61.1954 21.8263ZM26.9315 7.02368V13.2919H21.9371V7.02368H18.1914V22.9112H21.9371V16.2814H26.9315V22.9112H30.6772V7.02368H26.9315ZM47.5571 19.9218H45.9003V7.02368H34.9992V8.37376C34.9992 12.2552 34.7591 17.2698 33.4385 19.9218H32.2379V26.5275H35.6955V22.9112H44.0754V26.5275H47.5331V19.9218H47.5571ZM73.129 22.9112H77.3789L71.3761 14.3527L76.6586 7.02368H72.8888L67.6064 14.3527V7.02368H63.8606V22.9112H67.6064V15.1L73.129 22.9112ZM55.1206 9.67562C56.9694 9.67562 57.5457 11.2186 57.5457 13.2196V13.533H52.3353C52.4313 11.0016 53.3438 9.67562 55.1206 9.67562ZM42.1546 19.9218H36.8721C37.9046 17.535 38.1927 13.1955 38.1927 10.4471V9.96492H42.1546V19.9218Z" fill="black"/>
<path d="M15.0697 22.9112H11.2519V3.93777H9.54716C6.4257 3.93777 4.79294 5.50482 4.79294 7.84335C4.79294 10.4953 5.92147 11.7248 8.25055 13.2919L10.1714 14.5938L4.64888 22.9112H0.542969L5.51328 15.4858C2.65595 13.4365 1.0472 11.4355 1.0472 8.06033C1.0472 3.84133 3.97657 0.972412 9.52314 0.972412H15.0457L15.0697 22.9112Z" fill="#FC3F1D"/>
</svg>
